<?xml version="1.0" standalone="no"?>
<!DOCTYPE svg PUBLIC "-//W3C//DTD SVG 20010904//EN"
 "http://www.w3.org/TR/2001/REC-SVG-20010904/DTD/svg10.dtd">
<svg version="1.0" xmlns="http://www.w3.org/2000/svg"
 width="700.000000pt" height="700.000000pt" viewBox="0 0 700.000000 700.000000"
 preserveAspectRatio="xMidYMid meet">
<metadata>
Created by potrace 1.11, written by Peter Selinger 2001-2013
</metadata>
<g transform="translate(0.000000,700.000000) scale(0.100000,-0.100000)"
fill="#000000" stroke="none">
<path d="M799 6548 c-1 -2 -3 -1374 -3 -3050 l-2 -3048 2657 0 c2117 0 2658 3
2661 12 3 10 2 858 -1 931 -1 16 -14 17 -158 15 l-158 -3 -3 -318 -2 -317
-2337 2 -2338 3 0 2725 0 2725 2338 3 2337 2 2 -647 3 -648 150 0 c83 -1 155
0 160 2 8 3 12 924 6 1526 l-1 87 -2655 0 c-1460 0 -2656 -1 -2656 -2z"/>
<path d="M1493 5912 l-42 -3 0 -160 -1 -159 1997 2 1998 3 0 157 0 158 -35 0
c-248 3 -3886 4 -3917 2z"/>
<path d="M1458 5263 c-2 -5 -4 -75 -3 -158 l0 -150 1998 -3 1997 -2 0 160 0
160 -1994 0 c-1097 0 -1996 -3 -1998 -7z"/>
<path d="M1940 4620 c-4 -3 -8 -76 -8 -163 l-1 -157 747 2 747 3 0 154 c0 99
-4 155 -10 158 -16 5 -1465 9 -1475 3z"/>
<path d="M2684 3979 c-3 -6 -7 -250 -5 -301 1 -16 74 -17 1211 -17 948 0 1210
2 1211 12 0 6 1 78 2 160 l2 147 -25 1 c-140 4 -2393 2 -2396 -2z"/>
<path d="M3423 3180 l0 -160 1343 0 1344 0 0 160 0 160 -1343 0 -1344 0 0
-160z"/>
<path d="M2679 2666 c0 -32 0 -263 1 -281 0 -7 407 -10 1203 -9 661 1 1207 2
1213 3 8 1 11 49 10 159 l-1 157 -1212 1 -1213 1 -1 -31z"/>
<path d="M1935 2050 c-6 -11 -4 -310 3 -312 4 0 339 -2 745 -3 521 -1 737 2
738 9 5 40 4 284 0 296 -5 14 -93 15 -744 15 -407 0 -740 -2 -742 -5z"/>
<path d="M1467 1410 c-9 -4 -13 -46 -12 -162 l0 -158 1998 0 1997 0 0 160 c0
146 -2 160 -17 160 -149 4 -3957 4 -3966 0z"/>
</g>
</svg>
